<svg width="5" height="9" viewBox="0 0 5 9" fill="none" xmlns="http://www.w3.org/2000/svg">
<g clip-path="url(#clip0)">
<path fill-rule="evenodd" clip-rule="evenodd" d="M4.81995 4.95094L1.04895 8.81562C0.992911 8.87426 0.925519 8.92094 0.85083 8.95284C0.776141 8.98474 0.695701 9.0012 0.614441 9.0012C0.533181 9.0012 0.452741 8.98474 0.378052 8.95284C0.303362 8.92094 0.235971 8.87426 0.179932 8.81562C0.064497 8.69605 0 8.5366 0 8.37068C0 8.20476 0.064497 8.04525 0.179932 7.92568L3.51697 4.50649L0.179932 1.08626C0.064497 0.966693 0 0.807184 0 0.641261C0 0.475338 0.064497 0.31589 0.179932 0.196321C0.235971 0.137677 0.303362 0.0910002 0.378052 0.0590986C0.452741 0.0271969 0.533181 0.0107422 0.614441 0.0107422C0.695701 0.0107422 0.776141 0.0271969 0.85083 0.0590986C0.925519 0.0910002 0.992911 0.137677 1.04895 0.196321L4.81995 4.061C4.93538 4.18057 4.99988 4.34002 4.99988 4.50594C4.99988 4.67186 4.93538 4.83137 4.81995 4.95094V4.95094Z" fill="black"/>
</g>
<defs>
<clipPath id="clip0">
<rect width="5" height="9" fill="white"/>
</clipPath>
</defs>
</svg>
