<svg width="21" height="21" viewBox="0 0 21 21" fill="none" xmlns="http://www.w3.org/2000/svg">
<g clip-path="url(#clip0_2186_934)">
<path d="M0 8.65453V7.383C0.013125 7.33081 0.0283008 7.27944 0.0389649 7.22684C0.150527 6.68025 0.21123 6.11722 0.380215 5.58995C1.63939 1.65577 5.59248 -0.650168 9.64687 0.16519C13.1615 0.870409 15.8616 3.98718 16.0297 7.55849C16.1314 9.71771 15.4838 11.6328 14.0684 13.2767C11.5996 16.144 7.39512 16.8792 4.10772 15.0196C4.05702 14.9879 4.00009 14.9677 3.94083 14.9601C3.88157 14.9526 3.82138 14.958 3.76441 14.976C2.61078 15.3001 1.45619 15.6214 0.300645 15.9397C0.218613 15.9619 0.136582 15.9776 0.0348633 16.001C0.0508594 15.9311 0.057832 15.8921 0.0684961 15.8539C0.396621 14.6656 0.725976 13.4779 1.05656 12.2908C1.07691 12.2309 1.08379 12.1673 1.07669 12.1045C1.0696 12.0417 1.04872 11.9812 1.01555 11.9275C0.636268 11.2717 0.362741 10.5601 0.205078 9.8188C0.123047 9.43332 0.0672656 9.04372 0 8.65453ZM6.77004 6.14517C6.78398 6.0601 6.79629 5.98078 6.81105 5.89859C6.93082 5.24515 7.63137 4.78898 8.27736 4.94474C8.75643 5.06022 9.07758 5.3557 9.2076 5.82873C9.33762 6.30175 9.2076 6.72258 8.85158 7.06163C8.49557 7.40067 8.14119 7.74465 7.75975 8.05411C7.49068 8.27192 7.37584 8.5107 7.40783 8.85714C7.43859 9.1929 7.41439 9.53359 7.41439 9.87387H8.62354C8.62354 9.6051 8.61369 9.34619 8.62887 9.08893C8.63603 8.99157 8.67627 8.89961 8.74289 8.82837C9.04682 8.53371 9.36715 8.25508 9.67559 7.96534C10.2962 7.38095 10.5562 6.65436 10.4504 5.81681C10.3195 4.77871 9.50947 3.94115 8.48572 3.73855C7.46895 3.53717 6.41402 4.02088 5.88984 4.93611C5.67779 5.30598 5.55598 5.70338 5.57566 6.14558L6.77004 6.14517ZM7.42383 12.3315H8.61328V11.1277H7.42383V12.3315Z" fill="white"/>
<path d="M13.6208 20.9999C13.2611 20.9313 12.8956 20.8845 12.5425 20.7904C10.639 20.282 9.20629 19.1617 8.24201 17.443C8.22191 17.4073 8.201 17.3711 8.185 17.3341C8.17871 17.3121 8.17432 17.2895 8.17188 17.2667C10.65 17.1845 12.7968 16.3022 14.5514 14.547C16.3061 12.7917 17.1863 10.651 17.2708 8.12891C17.5579 8.30521 17.827 8.44946 18.0735 8.62453C19.6989 9.77976 20.6521 11.3505 20.9536 13.3194C20.9688 13.4189 20.9868 13.5179 21.0036 13.6169V14.8067C20.9876 14.8437 20.9755 14.8822 20.9675 14.9218C20.8777 15.8579 20.5857 16.73 20.1361 17.5519C20.0963 17.6412 20.0886 17.7416 20.1144 17.8359C20.2764 18.4474 20.4511 19.0557 20.6201 19.6655C20.7374 20.0888 20.8514 20.513 20.9741 20.9621C20.906 20.9494 20.867 20.9449 20.8301 20.9346C19.8457 20.663 18.8614 20.3925 17.8799 20.1156C17.8172 20.0933 17.7504 20.0853 17.6842 20.092C17.6181 20.0986 17.5542 20.1199 17.4972 20.1542C16.9895 20.4482 16.4406 20.6644 15.8689 20.7953C15.5182 20.8742 15.1634 20.9321 14.8103 21.0008L13.6208 20.9999Z" fill="white"/>
</g>
<defs>
<clipPath id="clip0_2186_934">
<rect width="21" height="21" fill="white"/>
</clipPath>
</defs>
</svg>
