<svg width="18" height="18" viewBox="-1 -1 17 17" fill="none" xmlns="http://www.w3.org/2000/svg">
<path d="M7.55163 0.408492C7.73504 0.0368694 8.26496 0.03687 8.44837 0.408493L10.5287 4.6237C10.6015 4.77127 10.7423 4.87356 10.9052 4.89722L15.5569 5.57316C15.967 5.63276 16.1308 6.13674 15.834 6.42601L12.468 9.70709C12.3501 9.82196 12.2964 9.98746 12.3242 10.1497L13.1188 14.7826C13.1889 15.1911 12.7601 15.5026 12.3933 15.3097L8.23267 13.1223C8.08701 13.0457 7.91299 13.0457 7.76733 13.1223L3.60667 15.3097C3.23985 15.5026 2.81114 15.1911 2.88119 14.7826L3.67581 10.1497C3.70363 9.98746 3.64985 9.82196 3.53201 9.70709L0.165966 6.42601C-0.130793 6.13674 0.0329629 5.63276 0.443073 5.57316L5.09483 4.89722C5.25769 4.87356 5.39847 4.77127 5.4713 4.6237L7.55163 0.408492Z" fill="black"/>
</svg>
