<svg width="18" height="18" viewBox="-1 -1 17 17" fill="none" xmlns="http://www.w3.org/2000/svg">
<path d="M6.36804 5.06627L8 1.75955L9.63196 5.06627C9.85046 5.50898 10.2728 5.81584 10.7614 5.88683L14.4105 6.41709L11.77 8.99101C11.4164 9.33561 11.2551 9.83211 11.3386 10.3187L11.9619 13.9531L8.69801 12.2372C8.26103 12.0075 7.73897 12.0075 7.30199 12.2372L4.03806 13.9531L4.66142 10.3187C4.74487 9.83211 4.58355 9.33561 4.23002 8.991L1.58945 6.41709L5.23863 5.88683C5.7272 5.81584 6.14954 5.50898 6.36804 5.06627ZM12.8587 14.4246L12.8581 14.4243L12.8587 14.4246Z" stroke="black" stroke-width="2"/>
</svg>
